<svg version="1.2" xmlns="http://www.w3.org/2000/svg" viewBox="0 0 20 20" width="20" height="20">
	<title>favorite-checked-svg</title>
	<style>
		.s0 { fill: #ffff00;stroke: #ffff00;stroke-linecap: round;stroke-linejoin: round;stroke-width: 2 } 
	</style>
	<path class="s0" d="m9.3 2.4c0.2-0.5 0.3-0.8 0.5-0.8q0.2-0.2 0.4 0c0.2 0 0.3 0.3 0.5 0.8l1.9 4.1c0 0.2 0.1 0.3 0.1 0.3q0.1 0.1 0.2 0.2c0.1 0 0.2 0 0.3 0l4.5 0.5c0.6 0.1 0.9 0.1 1 0.2q0.2 0.2 0.1 0.4c0 0.2-0.2 0.4-0.6 0.8l-3.4 3c-0.1 0.1-0.2 0.2-0.2 0.3q-0.1 0-0.1 0.2c0 0 0 0.1 0.1 0.3l0.9 4.4c0.1 0.6 0.2 0.8 0.1 1q-0.1 0.2-0.4 0.3c-0.1 0-0.4-0.2-0.9-0.4l-3.9-2.3c-0.1-0.1-0.2-0.1-0.3-0.1q-0.1-0.1-0.2 0c-0.1 0-0.2 0-0.3 0.1l-3.9 2.3c-0.5 0.2-0.8 0.4-0.9 0.4q-0.3-0.1-0.4-0.3c-0.1-0.2 0-0.4 0.1-1l0.9-4.4c0.1-0.2 0.1-0.3 0.1-0.3q0-0.2-0.1-0.2c0-0.1-0.1-0.2-0.2-0.3l-3.4-3c-0.4-0.4-0.6-0.6-0.6-0.8q-0.1-0.2 0.1-0.4c0.1-0.1 0.4-0.1 1-0.2l4.5-0.5c0.1 0 0.2 0 0.3 0q0.1-0.1 0.2-0.2c0 0 0.1-0.1 0.1-0.3z"/>
</svg>